<?xml version="1.0" encoding="UTF-8" standalone="no"?>
<!-- Generator: Adobe Illustrator 28.1.0, SVG Export Plug-In . SVG Version: 6.00 Build 0)  -->

<svg
   version="1.1"
   id="_图层_2"
   x="0px"
   y="0px"
   viewBox="0 0 342225 336400"
   xml:space="preserve"
   width="342225"
   height="336400"
   xmlns="http://www.w3.org/2000/svg"
   xmlns:svg="http://www.w3.org/2000/svg"><defs
   id="defs6" />
<style
   type="text/css"
   id="style1">
	.st0{fill:#DADBCC;}
	.st1{fill:#388683;}
	.st2{fill:#042E2A;}
	.st3{fill:#DBDCCD;}
</style>
<path
   class="st0"
   d="m 275,0 h 41 l 27,3 21,4 28,8 29,12 19,10 18,11 16,12 14,12 13,12 13,14 13,17 10,14 8,13 17,33 8,21 7,24 5,23 3,26 v 45 l -5,30 -6,24 -7,21 -8,19 -4,7 -5,10 -5,8 -4,8 -8,11 -7,11 -9,11 -11,13 -12,13 -12,11 -13,10 -14,10 -18,11 -25,13 -29,11 -36,9 -26,4 -12,1 h -29 l -25,-2 -18,-3 -25,-6 -26,-9 -20,-9 L 146,541 125,527 109,515 96,504 79,487 61,465 48,446 37,428 25,405 17,385 9,360 4,337 1,316 0,298 v -15 l 2,-24 5,-32 10,-35 8,-20 8,-16 6,-11 12,-19 10,-14 12,-14 12,-13 14,-14 14,-11 14,-10 22,-14 24,-12 19,-7 18,-6 25,-6 29,-4 z"
   id="path1" />
<path
   class="st1"
   d="m 582,243 -5,-23 -7,-24 -8,-21 -17,-33 -8,-13 L 527,115 514,98 501,84 488,72 474,60 458,48 440,37 421,27 392,15 364,7 343,3 316,0 h -41 l -11,1 -29,4 -25,6 -18,6 -19,7 -24,12 -22,14 -14,10 -14,11 -14,14 -12,13 -12,14 -10,14 -12,19 -6,11 -8,16 -8,20 -10,35 -5,32 -2,24 v 15 l 1,18 3,21 5,23 8,25 8,20 12,23 11,18 13,19 18,22 17,17 13,11 16,12 21,14 20,10 20,9 26,9 25,6 18,3 25,2 h 29 l 12,-1 26,-4 36,-9 29,-11 25,-13 18,-11 14,-10 13,-10 12,-11 12,-13 11,-13 9,-11 7,-11 8,-11 4,-8 5,-8 5,-10 4,-7 8,-19 7,-21 6,-24 5,-30 v -45 z m -15,62 -2,22 -1,2 -29,1 0.3,0.9 c -1,-0.8 -2.3,-1.2 -3.7,-1 L 454,341.2 438,341 h -81 l -7,1 -10,4 -10,7 -12,7 -9,4 -10,2 h -11 l -6,-1 -10,-4 -14,-9 -15,-8 -16,-2 -79.7,-0.5 -86.8,-12.6 c -0.9,-0.1 -1.7,0 -2.5,0.3 V 329 H 21 l -2,-17 v -43 l 2,-17 5,-26 7,-25 8,-21 5,-11 10,-18 8,-13 7,-10 8,-10 9,-11 9,-9 13,-12 13,-11 16,-12 18,-11 17,-9 25,-10 24,-7 34,-6 17,-2 h 43 l 22,3 25,5 24,7 20,8 27,14 15,10 15,11 11,9 15,15 11,12 11,14 10,15 10,16 10,20 8,20 8,27 6,29 2,23 z"
   id="path2" />
<path
   class="st2"
   d="m 275,0 h 41 l 27,3 21,4 28,8 29,12 19,10 18,11 16,12 14,12 13,12 13,14 13,17 10,14 8,13 17,33 8,21 7,24 5,23 3,26 v 45 l -5,30 -6,24 -7,21 -8,19 -4,7 -5,10 -5,8 -4,8 -8,11 -7,11 -9,11 -11,13 -12,13 -12,11 -13,10 -14,10 -18,11 -25,13 -29,11 -36,9 -26,4 -12,1 h -29 l -25,-2 -18,-3 -25,-6 -26,-9 -20,-9 L 146,541 125,527 109,515 96,504 79,487 61,465 48,446 37,428 25,405 17,385 9,360 4,337 1,316 0,298 v -15 l 2,-24 5,-32 10,-35 8,-20 8,-16 6,-11 12,-19 10,-14 12,-14 12,-13 14,-14 14,-11 14,-10 22,-14 24,-12 19,-7 18,-6 25,-6 29,-4 z m -1,18 -17,2 -34,6 -24,7 -25,10 -17,9 -18,11 -16,12 -13,11 -13,12 -9,9 -9,11 -8,10 -7,10 -8,13 -10,18 -5,11 -8,21 -7,25 -5,26 -2,17 v 43 l 3,25 9,35 11,27 10,21 14,23 12,16 9,10 7,8 16,16 14,11 10,8 18,11 19,11 30,12 23,7 17,4 33,4 h 41 l 36,-5 26,-7 29,-11 27,-14 19,-12 14,-11 16,-13 1,-3 4,-2 22,-24 12,-17 11,-18 13,-27 8,-21 6,-19 5,-27 2,-12 1,-13 v -29 l -2,-23 -6,-29 -8,-27 -8,-20 L 533,157 523,141 513,126 502,112 491,100 476,85 465,76 450,65 435,55 408,41 388,33 364,26 339,21 317,18 Z"
   id="path3" />
<path
   class="st3"
   d="m 83,368 h 140 l 14,2 17,7 10,7 14,11 7,3 h 16 l 12,-6 9,-7 10,-8 15,-7 6,-2 h 146 l 12,1 5,4 1,8 -4,3 H 356 l -11,4 -9,6 -11,10 -16,9 -5,1 h -20 l -11,-4 -13,-9 -8,-7 -15,-8 -13,-2 H 79 l -5,-2 -1,-5 4,-7 z"
   id="path4" />
<path
   class="st3"
   d="m 379,412 h 92 l 19,1 7,4 3,4 -1,6 -3,2 -17,-1 H 367 l -12,2 -8,4 -16,12 -9,7 -12,6 -13,2 -13,-1 -11,-4 -11,-7 -12,-10 -15,-9 -4,-1 -36,-1 h -52 l -38,1 -11,2 -4,-5 v -6 l 6,-5 5,-2 h 122 l 13,2 16,8 9,6 11,9 12,6 5,1 h 12 l 13,-4 11,-8 11,-10 14,-7 10,-3 z"
   id="path5" />
<path
   class="st2"
   d="m 436,112 -8,-7 -11,-6 -15,-6 -19,-4 h -26 l -5,1 -14,4 -16,7 -12,7 9,-14 8,-8 9,-6 16,-8 24,-5 4,-5 1,-6 -2,-3 -6,-4 h -8 l -19,5 -13,6 -14,9 -12,12 -10,14 -2,6 -2,-1 -6,-11 -9,-11 -8,-7 -11,-8 -16,-8 -19,-5 h -11 l -2,2 -3,5 1,7 4,4 14,2 10,3 14,7 10,7 12,13 4,7 -4,-2 -11,-6 -15,-6 -20,-4 h -18 l -25,6 -18,8 -11,7 -3,7 1,6 4,4 h 7 l 15,-10 9,-4 17,-4 h 25 l 19,4 9,3 -13,3 -17,6 -16,8 -14,9 -12,10 -11,13 -10,14 -8,17 -1,8 5,6 h 8 l 3,-3 8,-19 7,-10 7,-9 14,-12 15,-10 15,-6 16,-5 14,-2 -1,2 -5,3 -10,7 -13,13 -8,10 -8,12 -8,16 -7,23 -2,15 v 12 l 1,4 4,5 7,1 3,-2 3,-5 1,-18 3,-18 6,-17 7,-12 7,-10 7,-8 9,-8 10,-8 12,-6 -1,76 v 97.6 h -29.9 c -3.9,0 -7.1,3.2 -7.1,7.1 0,3.8 3,6.9 6.7,7.1 l 6.4,4.2 18,10 9,3 h 16 l 4,-1 17,-12 7.9,-4.3 c 1.8,-0.3 3.4,-1.2 4.5,-2.6 l 1.6,-1.1 h -0.9 c 0.5,-1 0.8,-2.1 0.8,-3.3 0,-3.9 -3.2,-7.1 -7.1,-7.1 H 303 V 146 l 8,4 16,13 12,13 7,9 6,11 7,17 4,19 1,16 1,4 3,3 7,1 5,-4 2,-9 -1,-18 -3,-15 -7,-19 -8,-14 -8,-11 -9,-11 -11,-10 -14,-10 h 5 l 24,6 19,9 17,12 9,10 9,12 8,17 5,8 8,1 5,-4 1,-8 -3,-9 -8,-15 -10,-14 -14,-14 -14,-11 -11,-6 -15,-6 -15,-4 -10,-1 v -3 h 2 l 12,-4 14,-3 h 20 l 17,4 11,4 18,11 h 8 l 4,-5 1,-6 z"
   id="path6" />
</svg>
